<svg width="28" height="28" viewBox="0 0 28 28" fill="none" xmlns="http://www.w3.org/2000/svg">
<path d="M24.1494 4.12177C23.5629 3.44911 22.8667 2.9155 22.1003 2.55144C21.334 2.18738 20.5126 2 19.6831 2C18.8535 2 18.0321 2.18738 17.2658 2.55144C16.4994 2.9155 15.8032 3.44911 15.2167 4.12177L13.9997 5.51714L12.7826 4.12177C11.5981 2.76368 9.99152 2.0007 8.31633 2.0007C6.64114 2.0007 5.03455 2.76368 3.85001 4.12177C2.66547 5.47987 2 7.32185 2 9.24249C2 11.1631 2.66547 13.0051 3.85001 14.3632L5.06705 15.7586L13.9997 26L22.9323 15.7586L24.1494 14.3632C24.7361 13.6909 25.2015 12.8926 25.519 12.0139C25.8366 11.1353 26 10.1936 26 9.24249C26 8.29142 25.8366 7.34967 25.519 6.47104C25.2015 5.59241 24.7361 4.79412 24.1494 4.12177Z" fill="#FF0022" stroke="#FF0022" stroke-width="3" stroke-linecap="round" stroke-linejoin="round"/>
</svg>
